# AST/ASF file generated using VICON BodyLanguage
# -----------------------------------------------
:version 1.10
:name VICON
:units
  mass 1.0
  length 0.45
  angle deg
:documentation
   .ast/.asf automatically generated from VICON data using
   VICON BodyBuilder and BodyLanguage model FoxedUp or BRILLIANT.MOD
:root
   order TX TY TZ RX RY RZ
   axis XYZ
   position 0 0 0  
   orientation 0 0 0 
:bonedata
  begin
     id 1 
     name lhipjoint
     direction 0.566809 -0.746272 0.349008 
     length 2.40479 
     axis 0 0 0  XYZ
  end
  begin
     id 2 
     name lfemur
     direction 0.34202 -0.939693 0  
     length 7.1578  
     axis 0 0 20  XYZ
    dof rx ry rz
    limits (-160.0 20.0)
           (-70.0 70.0)
           (-60.0 70.0)
  end
  begin
     id 3 
     name ltibia
     direction 0.34202 -0.939693 0   
     length 7.49137   
     axis 0 0 20   XYZ
    dof rx
    limits (-10.0 170.0)
  end
  begin
     id 4 
     name lfoot
     direction 0.0665746 -0.182912 0.980873   
     length 2.36784   
     axis -90 7.62852e-016 20   XYZ
    dof rx rz
    limits (-45.0 90.0)
           (-70.0 20.0)
  end
  begin
     id 5 
     name ltoes
     direction 1.53601e-011 -4.22058e-011 1   
     length 1.18966   
     axis -90 7.62852e-016 20   XYZ
    dof rx
    limits (-90.0 20.0)
  end
  begin
     id 6 
     name rhipjoint
     direction -0.550236 -0.756381 0.353735   
     length 2.37265  
     axis 0 0 0  XYZ 
  end
  begin
     id 7 
     name rfemur
     direction -0.34202 -0.939693 0   
     length 7.43386   
     axis 0 0 -20   XYZ
    dof rx ry rz
    limits (-160.0 20.0)
           (-70.0 70.0)
           (-70.0 60.0)
  end
  begin
     id 8 
     name rtibia
     direction -0.34202 -0.939693 0   
     length 7.50908   
     axis 0 0 -20   XYZ
    dof rx
    limits (-10.0 170.0)
 end
 begin
     id 9 
     name rfoot
     direction -0.0683029 -0.187661 0.979856   
     length 2.41173  
     axis -90 -7.62852e-016 -20   XYZ
    dof rx rz
    limits (-45.0 90.0)
           (-20.0 70.0)
  end
  begin
     id 10 
     name rtoes
     direction -1.53528e-011 -4.21968e-011 1   
     length 1.21082   
     axis -90 -7.62852e-016 -20   XYZ
    dof rx
    limits (-90.0 20.0)
  end
  begin
     id 11 
     name lowerback
     direction 0.013823 0.995423 -0.0945635   
     length 2.04495   
     axis 0 0 0   XYZ
    dof rx ry rz
    limits (-20.0 45.0)
           (-30.0 30.0)
           (-30.0 30.0)
  end
  begin
     id 12 
     name upperback
     direction 0.0276657 0.9994 -0.020853   
     length 2.05008   
     axis 0 0 0   XYZ
    dof rx ry rz
    limits (-20.0 45.0)
           (-30.0 30.0)
           (-30.0 30.0)
  end
  begin
     id 13 
     name thorax
     direction 0.019782 0.999531 0.0233827   
     length 2.06488   
     axis 0 0 0   XYZ
    dof rx ry rz
    limits (-20.0 45.0)
           (-30.0 30.0)
           (-30.0 30.0)
  end
  begin
     id 14 
     name lowerneck
     direction -0.0308541 0.994709 0.0979874   
     length 1.75553   
     axis 0 0 0   XYZ
    dof rx ry rz
    limits (-20.0 45.0)
           (-30.0 30.0)
           (-30.0 30.0)
  end
  begin
     id 15 
     name upperneck
     direction 0.0588398 0.995804 -0.0700903   
     length 1.76878   
     axis 0 0 0   XYZ
    dof rx ry rz
    limits (-20.0 45.0)
           (-30.0 30.0)
           (-30.0 30.0)
  end
  begin
     id 16
     name head
     direction 0.0209966 0.999159 -0.0352225  
     length 1.77193  
     axis 0 0 0   XYZ
    dof rx ry rz
    limits (-20.0 45.0)
           (-30.0 30.0)
           (-30.0 30.0)
  end
  begin
     id 17 
     name lclavicle
     direction 0.938182 0.335073 -0.0868338  
     length 3.58396  
     axis 0 0 0   XYZ
    dof ry rz
    limits (-20.0 10.0)
           (0.0 20.0)
  end
  begin
     id 18 
     name lhumerus
     direction 1 -4.48971e-011 -1.26313e-017   
     length 4.983   
     axis 180 -30 -90   XYZ
    dof rx ry rz
    limits (-60.0 90.0)
           (-90.0 90.0)
           (-90.0 90.0)
  end
  begin
     id 19
     name lradius
     direction 1 -4.48948e-011 -5.89033e-027   
     length 3.48356   
     axis 180 -30 -90   XYZ
    dof rx
    limits (-10.0 170.0)
  end
  begin
     id 20
     name lwrist
     direction 1 -4.48977e-011 -1.48983e-026   
     length 1.74178   
     axis 9.0955e-015 90 90   XYZ
    dof ry
    limits (-180.0 0.0)
 end
  begin
     id 21 
     name lhand
     direction 1 -4.49046e-011 -2.98066e-026   
     length 0.715259   
     axis 1.90115e-014 90 90   XYZ
    dof rx rz
    limits (-90.0 90.0)
           (-45.0 45.0)
  end
  begin
     id 22 
     name lfingers
     direction 1 -4.48907e-011 -5.95731e-026   
     length 0.576661   
     axis 3.80223e-014 90 90   XYZ
    dof rx
    limits (0.0 90.0)
  end
  begin
     id 23
     name lthumb
     direction 0.707107 -6.34963e-011 0.707107   
     length 0.827973   
     axis -90 45 -3.84942e-014   XYZ
    dof rx rz
    limits (-45.0 45.0)
           (-45.0 45.0)
  end
  begin
     id 24 
     name rclavicle
     direction -0.909637 0.398485 -0.11735   
     length 3.44819  
     axis 0 0 0   XYZ 
    dof ry rz
    limits (-10.0 20.0)
           (-20.0 0.0)
  end
  begin
     id 25 
     name rhumerus
     direction -1 -4.48978e-011 -1.09333e-027  
     length 5.2419   
     axis 180 30 90   XYZ
    dof rx ry rz
    limits (-90.0 60.0)
           (-90.0 90.0)
           (-90.0 90.0)
  end
  begin
     id 26 
     name rradius
     direction -1 -4.48953e-011 -7.61841e-027   
     length 3.44417   
     axis 180 30 90   XYZ
    dof rx
    limits (-10.0 170.0)
  end
  begin
     id 27 
     name rwrist
     direction -1 -4.48977e-011 -1.48983e-026   
     length 1.72209   
     axis 9.0955e-015 -90 -90   XYZ
    dof ry
    limits (-180.0 0.0)
  end
  begin
     id 28
     name rhand
     direction -1 -4.49027e-011 -2.98038e-026   
     length 0.622529   
     axis 1.90115e-014 -90 -90   XYZ
    dof rx rz
    limits (-90.0 90.0)
           (-45.0 45.0)
  end
  begin
     id 29
     name rfingers
     direction -1 -4.48838e-011 -5.95531e-026   
     length 0.501899   
     axis 3.80223e-014 -90 -90   XYZ
    dof rx
    limits (0.0 90.0)
  end
  begin
     id 30
     name rthumb
     direction -0.707107 -6.34937e-011 0.707107   
     length 0.720629   
     axis -90 -45 3.84942e-014   XYZ
    dof rx rz
    limits (-45.0 45.0)
           (-45.0 45.0)
  end
:hierarchy
  begin
    root lhipjoint rhipjoint lowerback
    lhipjoint lfemur
    lfemur ltibia
    ltibia lfoot
    lfoot ltoes
    rhipjoint rfemur
    rfemur rtibia
    rtibia rfoot
    rfoot rtoes
    lowerback upperback
    upperback thorax
    thorax lowerneck lclavicle rclavicle
    lowerneck upperneck
    upperneck head
    lclavicle lhumerus
    lhumerus lradius
    lradius lwrist
    lwrist lhand lthumb
    lhand lfingers
    rclavicle rhumerus
    rhumerus rradius
    rradius rwrist
    rwrist rhand rthumb
    rhand rfingers
  end

#!OML:ASF F:\VICON\USERDATA\Patient Classification 1\PLAYGROUND\JustinFriday\JustinFriday.ASF
:FULLY-SPECIFIED
:DEGREES
815
root -12.7344 30.087 -10.9485 264.104 82.7937 -128.351
lowerback 23.3308 -1.14525 0.201745
upperback 9.32272 -0.635352 1.26401
thorax -2.77161 -0.0487664 1.3869
lowerneck 9.48273 -9.26676 -4.74246
upperneck -28.5634 -7.28152 25.2748
head -9.13767 -5.60343 10.7455
rclavicle 3.49861e-014 -4.37326e-015
rhumerus -13.0251 25.2746 -84.9587
rradius 65.5367
rwrist 25.9224
rhand -55.0879 -1.04785
rfingers 7.12502
rthumb -27.4643 -29.0654
lclavicle 3.49861e-014 -4.37326e-015
lhumerus -14.5207 -23.0392 84.6613
lradius 66.84
lwrist -42.1098
lhand -42.3536 -33.8833
lfingers 7.12502
lthumb -15.2358 -4.46438
rfemur -29.8047 0.475077 29.1037
rtibia 41.4943
rfoot -37.6095 -5.93002
rtoes 4.05077
lfemur -32.4865 0.979809 -14.7487
ltibia 42.2686
lfoot -40.7472 -13.1934
ltoes 21.9312
816
root -12.7261 30.0913 -10.9373 266.644 83.0327 -126.153
lowerback 22.8498 -0.451142 0.462826
upperback 9.17525 0.291972 1.59291
thorax -2.71615 0.394727 1.35964
lowerneck 9.68237 -9.44326 -5.9189
upperneck -28.6074 -7.94569 24.8754
head -8.99649 -5.77756 10.8204
rclavicle -3.97569e-016 1.23246e-014
rhumerus -13.5325 24.0941 -83.4225
rradius 65.6896
rwrist 25.5443
rhand -55.3889 -2.09064
rfingers 7.12502
rthumb -27.752 -30.0622
lclavicle -3.97569e-016 1.23246e-014
lhumerus -14.4237 -24.9443 85.9132
lradius 66.7197
lwrist -41.7636
lhand -42.3773 -33.9761
lfingers 7.12502
lthumb -15.2586 -4.55886
rfemur -30.1503 0.791665 28.8973
rtibia 41.4578
rfoot -37.803 -4.78083
rtoes 7.10479
lfemur -32.6841 0.782388 -14.8817
ltibia 42.0488
lfoot -40.9202 -12.2392
ltoes 21.4278
817
root -12.711 30.1082 -10.9217 266.105 83.4609 -126.496
lowerback 22.9534 -0.465843 -0.311581
upperback 9.33196 0.120538 1.42832
thorax -2.58992 0.302403 1.66715
lowerneck 9.11455 -8.93694 -5.55139
upperneck -27.9563 -7.37116 24.0975
head -8.84073 -5.40833 10.3174
rclavicle -2.70347e-014 -8.34896e-015
rhumerus -13.3405 24.2571 -84.003
rradius 65.526
rwrist 25.9008
rhand -55.5994 -2.44813
rfingers 7.12502
rthumb -27.9533 -30.3871
lclavicle -2.70347e-014 -8.34896e-015
lhumerus -14.0704 -24.4247 85.7064
lradius 66.3262
lwrist -42.3026
lhand -42.9287 -33.9228
lfingers 7.12502
lthumb -15.7897 -4.54674
rfemur -29.9537 0.842488 28.5047
rtibia 41.4846
rfoot -37.6405 -6.38139
rtoes 4.10073
lfemur -32.3846 1.13078 -15.5109
ltibia 41.7388
lfoot -41.1528 -10.6005
ltoes 18.5903
818
root -12.707 30.1143 -10.911 264.285 83.7801 -128.204
lowerback 23.0497 -0.293738 -0.84704
upperback 9.19816 0.234364 1.66096
thorax -2.78509 0.341445 2.19509
lowerneck 9.49074 -8.49206 -6.42749
upperneck -27.6472 -7.07688 23.6289
head -8.82969 -5.14151 10.277
rclavicle -3.85642e-014 -4.87022e-014
rhumerus -13.9549 24.3994 -83.3801
rradius 65.9132
rwrist 25.6717
rhand -55.6333 -2.55285
rfingers 7.12502
rthumb -27.9857 -30.4865
lclavicle -3.85642e-014 -4.87022e-014
lhumerus -14.2719 -24.0829 86.7139
lradius 65.8055
lwrist -43.1534
lhand -43.5759 -33.7319
lfingers 7.12502
lthumb -16.413 -4.40627
rfemur -29.8598 0.895714 28.2008
rtibia 41.4792
rfoot -37.3621 -8.5282
rtoes -0.668475
lfemur -32.1716 0.905943 -15.8861
ltibia 41.5425
lfoot -41.127 -11.5565
ltoes 21.6799
819
root -12.7164 30.0906 -10.9151 265.065 83.4051 -127.608
lowerback 22.8277 -0.601957 -0.508614
upperback 9.20821 -0.108535 1.40343
thorax -2.65342 0.182498 1.80817
lowerneck 8.9579 -7.78871 -5.96206
upperneck -26.8914 -6.13245 23.0662
head -8.69795 -4.62324 9.82876
rclavicle -5.56597e-015 -1.07344e-014
rhumerus -14.0542 24.9926 -84.0953
rradius 66.1839
rwrist 25.653
rhand -55.6799 -2.97775
rfingers 7.12502
rthumb -28.0303 -30.9042
lclavicle -5.56597e-015 -1.07344e-014
lhumerus -13.932 -22.8551 85.848
lradius 64.9901
lwrist -43.6937
lhand -43.938 -34.5892
lfingers 7.12502
lthumb -16.7615 -5.29275
rfemur -29.9901 1.35071 28.4371
rtibia 41.5282
rfoot -38.0657 -6.76123
rtoes 3.54312
lfemur -32.1568 0.861057 -15.3507
ltibia 41.3333
lfoot -40.5824 -12.7071
ltoes 22.9778
